# xmcd
#
# Track frame offsets:
#	150
#	9354
#	19248
#	28685
#	43181
#	53392
#	60676
#	71267
#	79929
#	91322
#
# Disc length: 1345 seconds
#
# Revision: 1
# Processed by: cddbd v1.5.2PL0 Copyright (c) Steve Scherf et al.
# Submitted via: audiograbber 1.83.01
#
DISCID=73053f0a
DTITLE=Porter Wagoner - Country Feeling
DYEAR=1969
DGENRE=Country
TTITLE0=Country Music Has Gone To Town
TTITLE1=Blue Moon Of Kentucky
TTITLE2=Wakin' Up The Crowd
TTITLE3=Legend Of The Big Steeple
TTITLE4=Will You Be Lovin' Another Man
TTITLE5=Head Of Heels In Love With You
TTITLE6=Falling Again
TTITLE7=Doll Face
TTITLE8=Just Before Dawn
TTITLE9=Little Cabin Home In The Hills
EXTD=
EXTT0=
EXTT1=
EXTT2=
EXTT3=
EXTT4=
EXTT5=
EXTT6=
EXTT7=
EXTT8=
EXTT9=
PLAYORDER=
